<svg viewBox="0 0 24 24" xmlns="http://www.w3.org/2000/svg" fill="currentColor">
  <path d="M20.317 4.492c-1.531-.775-3.148-1.319-4.85-1.552a.051.051 0 0 0-.051.025c-.209.378-.44.888-.603 1.286-1.829-.274-3.648-.274-5.447 0-.162-.398-.394-.908-.607-1.286a.052.052 0 0 0-.051-.025c-1.702.233-3.319.777-4.85 1.552a.049.049 0 0 0-.021.021C1.637 10.224 0.868 15.893 2.804 21.13a.052.052 0 0 0 .021.028c1.805.935 3.558 1.686 5.26 2.191a.052.052 0 0 0 .056-.019c.462-.612.873-1.25 1.226-1.911a.05.05 0 0 0-.041-.073c-.697-.211-1.362-.497-2.007-.822a.051.051 0 0 1-.006-.085c.135-.1.271-.203.402-.31a.051.051 0 0 1 .053-.007c4.697 2.191 9.876 2.191 14.528 0a.051.051 0 0 1 .053.007c.131.107.267.21.403.31a.051.051 0 0 1-.006.085c-.645.325-1.31.611-2.007.822a.051.051 0 0 0-.041.073c.353.661.764 1.299 1.225 1.911a.052.052 0 0 0 .056.019c1.704-.505 3.457-1.256 5.262-2.191a.052.052 0 0 0 .021-.028c2.065-5.736.588-10.954-1.060-14.99a.049.049 0 0 0-.021-.028zM8.02 17.999c-1.287 0-2.35-1.181-2.35-2.63 0-1.449 1.043-2.63 2.35-2.63 1.307 0 2.364 1.182 2.35 2.63 0 1.449-1.043 2.63-2.35 2.63zm7.975 0c-1.287 0-2.35-1.181-2.35-2.63 0-1.449 1.043-2.63 2.35-2.63 1.307 0 2.364 1.182 2.35 2.63 0 1.449-1.042 2.63-2.35 2.63z"/>
</svg>
