
<svg xmlns="http://www.w3.org/2000/svg" viewBox="0 20.549999237060547 23.899999618530273 33.04999923706055" data-asc="1.06" width="23.899999618530273" height="33.04999923706055"><defs/><g fill="#000000"><g transform="translate(0, 0)"><path d="M11.95 53.60Q8.95 53.60 6.20 52.30Q3.45 51 1.72 48.05Q0 45.10 0 40.25Q0 36.55 1 34Q2 31.45 3.70 29.88Q5.40 28.30 7.55 27.60Q9.70 26.90 11.95 26.90Q14.20 26.90 16.35 27.60Q18.50 28.30 20.20 29.88Q21.90 31.45 22.90 34Q23.90 36.55 23.90 40.25Q23.90 45.10 22.18 48.05Q20.45 51 17.73 52.30Q15 53.60 11.95 53.60M11.95 50Q15.50 50 17.55 47.80Q19.60 45.60 19.60 40.15Q19.60 36.50 18.68 34.40Q17.75 32.30 16.05 31.40Q14.35 30.50 11.95 30.50Q9.55 30.50 7.85 31.40Q6.15 32.30 5.23 34.40Q4.30 36.50 4.30 40.15Q4.30 45.60 6.35 47.80Q8.40 50 11.95 50M4.55 20.55L19.35 20.55L19.35 23.90L16.75 23.65L7.15 23.65L4.55 23.90L4.55 20.55Z"/></g></g></svg>